<?xml version="1.0" encoding="utf-8"?>
<!-- Generator: Adobe Illustrator 19.1.1, SVG Export Plug-In . SVG Version: 6.00 Build 0)  -->
<svg version="1.1" id="Layer_1" xmlns="http://www.w3.org/2000/svg" xmlns:xlink="http://www.w3.org/1999/xlink" x="0px" y="0px"
	 viewBox="0 0 388.2 149.1" style="enable-background:new 0 0 388.2 149.1;" xml:space="preserve">
<style type="text/css">
	.st0{fill:#4681CF;stroke:#FFE200;stroke-width:2;stroke-miterlimit:10;}
	.st1{display:none;fill:#4681CF;stroke:#FFE200;stroke-width:2;stroke-miterlimit:10;}
	.st2{fill:#4681CF;}
	.st3{fill:#FF6C2C;stroke:#FF6C2C;stroke-miterlimit:10;}
	.st4{font-family:'Tahoma-Bold';}
	.st5{font-size:38.9627px;}
	.st6{fill:none;}
</style>
<g id="calender">
	<path class="st0" d="M44.1,80.8c-2.1,0-4.3,0-6.4,0c-1-0.2-2-0.4-3-0.5C18.7,77.9,5.6,65.7,2.1,49.8C1.6,47.9,1.3,46,1,44.1
		c0-2.1,0-4.3,0-6.4c0.2-1,0.4-2,0.5-3C4,18.7,16.1,5.6,32,2.1c1.9-0.4,3.8-0.7,5.7-1.1c2.1,0,4.3,0,6.4,0c1,0.2,2,0.4,3,0.5
		C63.1,4,76.2,16.1,79.8,32c0.4,1.9,0.7,3.8,1.1,5.7c0,2.1,0,4.3,0,6.4c-0.2,1-0.4,2-0.5,3c-2.4,16.1-14.6,29.1-30.5,32.7
		C47.9,80.2,46,80.5,44.1,80.8z M50.3,23c-0.8-0.1-1.2-0.1-1.5-0.1c-5,0-10,0-15,0c-1.3,0-1.8,0.9-1.2,2.1c0.1,0.3,0.4,0.5,0.5,0.8
		c1,1.6,0.7,3.5-0.6,4.7c-1.3,1.2-3.4,1.2-4.8,0.1c-1.4-1.2-1.7-3.2-0.8-4.8c0.4-0.8,0.6-1.7,1-2.8c-2.8,0-5.1,0.1-7.4,0
		c-1.1,0-1.5,0.3-1.5,1.5c0,12.3,0,24.6,0,36.8c0,1.2,0.4,1.6,1.6,1.6c13.6,0,27.2,0,40.8,0c1.2,0,1.6-0.3,1.6-1.5
		c0-12.3,0-24.6,0-36.8c0-0.4,0-0.9-0.1-1.5c-2.3,0-4.5,0-6.7,0c-1.4,0-1.9,0.9-1.3,2.1c0.1,0.3,0.4,0.5,0.5,0.8
		c1,1.6,0.7,3.5-0.7,4.7c-1.4,1.2-3.5,1.2-4.9,0c-1.3-1.2-1.5-3.1-0.6-4.7C49.8,24.9,50,24.1,50.3,23z M28.1,24.8c0,1.1,0,2.1,0,3.2
		c0.1,1.1,0.9,2,1.9,2c1,0,1.8-0.8,1.9-2c0-2.2,0-4.3,0-6.5c0-1.1-0.9-2-1.9-2.1c-1,0-1.9,0.9-2,2.1C28.1,22.6,28.1,23.7,28.1,24.8z
		 M54.3,24.8C54.3,24.8,54.3,24.8,54.3,24.8c0-1.1,0-2.1,0-3.2c0-0.1,0-0.2,0-0.3c0-1.2-0.8-1.8-1.8-2c-0.9-0.2-2,0.8-2,1.9
		c-0.1,2.3-0.1,4.5,0,6.8c0,1.1,0.8,1.8,1.9,1.9c1,0.1,1.9-0.8,1.9-1.9C54.4,26.9,54.3,25.9,54.3,24.8z"/>
	<path class="st0" d="M37.7,1c-1.9,0.3-3.8,0.6-5.7,1.1C16.1,5.6,4,18.7,1.5,34.8c-0.2,1-0.3,2-0.5,3C1,25.5,1,13.3,1,1
		C13.2,1,25.5,1,37.7,1z"/>
	<path class="st1" d="M80.8,37.7c-0.3-1.9-0.6-3.8-1.1-5.7C76.2,16.1,63.1,4,47.1,1.5c-1-0.2-2-0.3-3-0.5c12.2,0,24.5,0,36.7,0
		C80.8,13.2,80.8,25.5,80.8,37.7z"/>
	<path class="st1" d="M1,44.1c0.3,1.9,0.6,3.8,1.1,5.7c3.6,15.9,16.6,28.1,32.7,30.5c1,0.2,2,0.3,3,0.5c-12.2,0-24.4,0-36.7,0
		C1,68.6,1,56.4,1,44.1z"/>
	<path class="st1" d="M44.1,80.8c1.9-0.3,3.8-0.6,5.7-1.1c15.9-3.6,28.1-16.6,30.5-32.7c0.2-1,0.3-2,0.5-3c0,12.2,0,24.4,0,36.7
		C68.6,80.8,56.4,80.8,44.1,80.8z"/>
	<path class="st0" d="M50.3,23c-0.4,1-0.5,1.9-0.9,2.7c-0.9,1.6-0.7,3.5,0.6,4.7c1.4,1.2,3.5,1.2,4.9,0c1.4-1.2,1.6-3.2,0.7-4.7
		c-0.2-0.3-0.4-0.5-0.5-0.8c-0.6-1.3-0.1-2.1,1.3-2.1c2.2,0,4.4,0,6.7,0c0,0.6,0.1,1,0.1,1.5c0,12.3,0,24.6,0,36.8
		c0,1.2-0.4,1.6-1.6,1.5c-13.6,0-27.2,0-40.8,0c-1.2,0-1.6-0.3-1.6-1.6c0-12.3,0-24.6,0-36.8c0-1.2,0.4-1.5,1.5-1.5
		c2.3,0.1,4.6,0,7.4,0c-0.4,1.1-0.6,2.1-1,2.8c-0.9,1.7-0.7,3.6,0.8,4.8c1.4,1.1,3.4,1.1,4.8-0.1c1.4-1.2,1.6-3.1,0.6-4.7
		c-0.2-0.3-0.4-0.5-0.5-0.8c-0.6-1.2-0.1-2.1,1.2-2.1c5,0,10,0,15,0C49.1,22.9,49.5,22.9,50.3,23z M58.7,58.4c0-8.2,0-16.3,0-24.3
		c-11.8,0-23.5,0-35.3,0c0,8.2,0,16.2,0,24.3C35.2,58.4,46.9,58.4,58.7,58.4z"/>
	<path class="st0" d="M28.1,24.8c0-1.1,0-2.2,0-3.3c0-1.2,0.9-2.1,2-2.1c1,0,1.8,0.9,1.9,2.1c0,2.2,0,4.3,0,6.5c0,1.2-0.8,2-1.9,2
		c-1,0-1.9-0.8-1.9-2C28.1,26.9,28.1,25.9,28.1,24.8z"/>
	<path class="st0" d="M54.3,24.8c0,1.1,0,2.1,0,3.2c-0.1,1.2-0.9,2-1.9,1.9c-1.1-0.1-1.9-0.7-1.9-1.9c-0.1-2.3-0.1-4.5,0-6.8
		c0-1.1,1.1-2.1,2-1.9c1.1,0.2,1.8,0.8,1.8,2c0,0.1,0,0.2,0,0.3C54.3,22.7,54.3,23.8,54.3,24.8C54.3,24.8,54.3,24.8,54.3,24.8z"/>
	<path class="st0" d="M58.7,58.4c-11.8,0-23.5,0-35.3,0c0-8.1,0-16.2,0-24.3c11.7,0,23.4,0,35.3,0C58.7,42.2,58.7,50.2,58.7,58.4z
		 M38.9,49.1c1.6,0,3,0,4.5,0c0-1.5,0-2.9,0-4.5c-1.4,0-2.6,0-3.9,0c-0.2,0-0.6,0.4-0.6,0.6C38.8,46.6,38.9,47.8,38.9,49.1z
		 M41.2,43.3c2.6,0,2.3,0.4,2.3-2.3c0-2.7,0.3-2.3-2.3-2.3c-2.6,0-2.3-0.4-2.3,2.3C38.9,43.7,38.6,43.3,41.2,43.3z M43.5,50.7
		c-1.4,0-2.6,0-3.9,0c-0.3,0-0.7,0.5-0.7,0.8c-0.5,3.6-0.3,3.9,3.4,3.8c0.2,0,0.4,0.1,0.5,0c0.3-0.2,0.7-0.4,0.7-0.6
		C43.5,53.3,43.5,52.1,43.5,50.7z M32.6,43.3c1.4,0,2.7,0,3.9,0c0.2,0,0.6-0.4,0.6-0.6c0.1-1.3,0-2.5,0-3.9c-1.6,0-3,0-4.6,0
		c0,0.6,0,1.1,0,1.6C32.6,41.3,32.6,42.2,32.6,43.3z M49.7,38.8c-4.3-0.7-4.7-0.4-4.5,3.4c0,0.1,0,0.3,0,0.4
		c0.2,0.2,0.4,0.6,0.7,0.6c1.3,0.1,2.5,0,3.9,0C49.7,41.7,49.7,40.3,49.7,38.8z M51.5,38.7c0,1.3,0,2.6,0,3.8c0,0.3,0.4,0.7,0.7,0.7
		c1.3,0.1,2.5,0,3.8,0c0-1.6,0-3.1,0-4.5C54.5,38.7,53.1,38.7,51.5,38.7z M30.8,49.2c0-1.6,0-3,0-4.4c-1.5,0-3,0-4.4,0
		c0,1.5,0,3,0,4.4C27.9,49.2,29.3,49.2,30.8,49.2z M37.2,49.2c0-1.4,0-2.6,0-3.8c0-0.3-0.4-0.7-0.7-0.7c-1.3-0.1-2.5,0-3.8,0
		c0,1.6,0,3,0,4.5C34.2,49.2,35.6,49.2,37.2,49.2z M49.7,44.6c-1.3,0-2.6,0-3.8,0c-0.3,0-0.7,0.4-0.7,0.6c-0.1,1.3,0,2.5,0,3.8
		c1.6,0,3,0,4.5,0C49.7,47.7,49.7,46.3,49.7,44.6z M56,49.2c0-1.6,0-3,0-4.4c-1.5,0-3,0-4.4,0c0,1.5,0,3,0,4.4
		C53.1,49.2,54.5,49.2,56,49.2z M30.8,55.2c0-1.5,0-2.9,0-4.4c-1.5,0-2.9,0-4.4,0c0,1.5,0,2.9,0,4.4C27.9,55.2,29.3,55.2,30.8,55.2z
		 M37.1,50.7c-1.5,0-3,0-4.4,0c0,1.5,0,2.9,0,4.4c1.5,0,3,0,4.4,0C37.1,53.6,37.1,52.2,37.1,50.7z M49.7,50.8c-1.6,0-3,0-4.5,0
		c0,1.3,0,2.5,0,3.7c0,0.3,0.4,0.7,0.6,0.8c1.3,0.1,2.5,0,3.9,0C49.7,53.7,49.7,52.3,49.7,50.8z"/>
	<path class="st2" d="M38.9,49.1c0-1.3,0-2.6,0-3.9c0-0.2,0.4-0.6,0.6-0.6c1.3-0.1,2.5,0,3.9,0c0,1.6,0,3,0,4.5
		C41.9,49.1,40.5,49.1,38.9,49.1z"/>
	<path class="st2" d="M41.2,43.3c-2.6,0-2.3,0.4-2.3-2.3c0-2.7-0.3-2.3,2.3-2.3c2.6,0,2.3-0.4,2.3,2.3
		C43.5,43.7,43.8,43.3,41.2,43.3z"/>
	<path class="st2" d="M43.5,50.7c0,1.4,0,2.7,0,4c0,0.2-0.4,0.5-0.7,0.6c-0.1,0.1-0.3,0-0.5,0c-3.6,0.1-3.9-0.1-3.4-3.8
		c0-0.3,0.5-0.8,0.7-0.8C40.9,50.6,42.1,50.7,43.5,50.7z"/>
	<path class="st2" d="M32.6,43.3c0-1.1,0-2,0-2.9c0-0.5,0-1,0-1.6c1.6,0,3,0,4.6,0c0,1.3,0,2.6,0,3.9c0,0.2-0.4,0.6-0.6,0.6
		C35.3,43.3,34,43.3,32.6,43.3z"/>
	<path class="st2" d="M49.7,38.8c0,1.5,0,2.9,0,4.4c-1.3,0-2.6,0-3.9,0c-0.2,0-0.5-0.4-0.7-0.6c-0.1-0.1,0-0.3,0-0.4
		C45,38.5,45.5,38.1,49.7,38.8z"/>
	<path class="st2" d="M51.5,38.7c1.6,0,3,0,4.5,0c0,1.5,0,2.9,0,4.5c-1.3,0-2.6,0-3.8,0c-0.2,0-0.6-0.5-0.7-0.7
		C51.5,41.3,51.5,40.1,51.5,38.7z"/>
	<path class="st2" d="M30.8,49.2c-1.5,0-2.9,0-4.4,0c0-1.5,0-2.9,0-4.4c1.4,0,2.9,0,4.4,0C30.8,46.2,30.8,47.6,30.8,49.2z"/>
	<path class="st2" d="M37.2,49.2c-1.6,0-3,0-4.5,0c0-1.5,0-2.9,0-4.5c1.3,0,2.6,0,3.8,0c0.2,0,0.7,0.4,0.7,0.7
		C37.2,46.6,37.2,47.8,37.2,49.2z"/>
	<path class="st2" d="M49.7,44.6c0,1.6,0,3,0,4.5c-1.5,0-2.9,0-4.5,0c0-1.3,0-2.6,0-3.8c0-0.2,0.5-0.6,0.7-0.6
		C47.2,44.6,48.4,44.6,49.7,44.6z"/>
	<path class="st2" d="M56,49.2c-1.5,0-2.9,0-4.4,0c0-1.5,0-2.9,0-4.4c1.5,0,2.9,0,4.4,0C56,46.2,56,47.6,56,49.2z"/>
	<path class="st2" d="M30.8,55.2c-1.5,0-2.9,0-4.4,0c0-1.5,0-2.9,0-4.4c1.5,0,2.9,0,4.4,0C30.8,52.2,30.8,53.6,30.8,55.2z"/>
	<path class="st2" d="M37.1,50.7c0,1.5,0,2.9,0,4.4c-1.4,0-2.9,0-4.4,0c0-1.4,0-2.9,0-4.4C34.2,50.7,35.6,50.7,37.1,50.7z"/>
	<path class="st2" d="M49.7,50.8c0,1.5,0,2.9,0,4.5c-1.3,0-2.6,0-3.9,0c-0.2,0-0.6-0.5-0.6-0.8c-0.1-1.2,0-2.4,0-3.7
		C46.7,50.8,48.2,50.8,49.7,50.8z"/>
</g>
<text transform="matrix(1.0035 0 0 1 101.8412 53.1644)" class="st3 st4 st5">RESERVATION</text>
<path id="surround" class="st6" d="M330.8,64.9h-318c-6.6,0-12-5.4-12-12v-26c0-6.6,5.4-12,12-12h318c6.6,0,12,5.4,12,12v26
	C342.8,59.5,337.4,64.9,330.8,64.9z"/>
</svg>
